<svg width="50" height="54" viewBox="0 0 50 54" fill="none" xmlns="http://www.w3.org/2000/svg">
<g clip-path="url(#clip0_103_9245)">
<path fill-rule="evenodd" clip-rule="evenodd" d="M46.5443 0.720207L42.3114 48.1397L23.2843 53.4146L4.30949 48.1471L0.0810547 0.720207H46.5443ZM23.3127 16.2316H15.0841L15.6156 22.188H23.3127H36.8134L36.6715 23.75L35.3046 39.0635L35.2172 40.0462L23.3127 43.3455L23.2859 43.3539L11.3708 40.0462L10.5559 30.9131H16.395L16.8091 35.5522L23.2872 37.3014L23.2926 37.3L29.78 35.5485L30.4552 28.0047H23.3127H10.296L8.86636 11.9754L8.72713 10.4148H23.3127H37.8635L37.7244 11.9754L37.4594 14.9242L37.3427 16.2316H23.3127Z" fill="#868E96"/>
</g>
<defs>
<clipPath id="clip0_103_9245">
<rect width="49.6875" height="53" fill="white" transform="translate(0 0.580719)"/>
</clipPath>
</defs>
</svg>
