<svg width="58" height="58" viewBox="0 0 58 58" fill="none" xmlns="http://www.w3.org/2000/svg">
<path d="M17.2785 14.2924H24.0068V33.1516C24.0068 41.6502 19.9332 44.617 13.4256 44.617C11.8328 44.617 9.79513 44.3516 8.46777 43.9085L9.22114 38.4628C10.1503 38.7731 11.3467 38.9937 12.6741 38.9937C15.5081 38.9937 17.2785 37.7094 17.2785 33.1067V14.2924ZM29.8489 37.2251C31.6193 38.1543 34.4534 39.0852 37.3306 39.0852C40.4301 39.0852 42.0678 37.8009 42.0678 35.8099C42.0678 33.9946 40.6507 32.8879 37.0651 31.6484C32.1072 29.878 28.8319 27.1336 28.8319 22.7498C28.8319 17.6592 33.1261 13.8081 40.1198 13.8081C43.5279 13.8081 45.9637 14.4718 47.7341 15.313L46.2292 20.7139C45.0776 20.1381 42.909 19.2969 40.0319 19.2969C37.1099 19.2969 35.6929 20.6691 35.6929 22.174C35.6929 24.0771 37.3306 24.9184 41.2265 26.4233C46.4947 28.3713 48.9288 31.1157 48.9288 35.365C48.9288 40.3677 45.1225 44.617 36.9323 44.617C33.5243 44.617 30.1593 43.6879 28.4767 42.757L29.8489 37.2233V37.2251Z" fill="#868E96"/>
</svg>
