<svg width="92" height="26" viewBox="0 0 92 26" fill="none" xmlns="http://www.w3.org/2000/svg">
<g clip-path="url(#clip0_66_271)">
<path d="M84.4629 9.25438C84.2398 9.25438 84.0228 9.30046 83.8308 9.40912L77.7543 12.9182C77.3611 13.1449 77.1221 13.5727 77.1221 14.028V21.0335C77.1221 21.4884 77.3611 21.9157 77.7543 22.1428L79.3412 23.0589C80.1123 23.4389 80.3965 23.433 80.7474 23.433C81.8889 23.433 82.5406 22.7403 82.5406 21.5366V14.6213C82.5406 14.5236 82.456 14.4537 82.3601 14.4537H81.5989C81.5014 14.4537 81.4183 14.5236 81.4183 14.6213V21.5366C81.4183 22.07 80.8625 22.6067 79.9606 22.1558L78.3091 21.1882C78.2506 21.1565 78.2058 21.1003 78.2058 21.0335V14.0278C78.2058 13.9615 78.2501 13.8939 78.3091 13.8601L84.3727 10.3641C84.4001 10.3481 84.4312 10.3397 84.4629 10.3397C84.4947 10.3397 84.5258 10.3481 84.5532 10.3641L90.617 13.8603C90.6747 13.8951 90.7202 13.9595 90.7202 14.0282V21.0336C90.7202 21.1005 90.6865 21.169 90.6299 21.2013L84.5532 24.6975C84.5012 24.7285 84.4295 24.7285 84.3727 24.6975L82.8116 23.7687C82.7878 23.7558 82.7612 23.749 82.7342 23.749C82.7072 23.749 82.6806 23.7558 82.6568 23.7687C82.226 24.0129 82.1449 24.0412 81.7407 24.1814C81.6412 24.2162 81.4901 24.2702 81.7924 24.4396L83.8308 25.6392C84.023 25.7501 84.2412 25.808 84.463 25.8071C84.6849 25.8084 84.9031 25.7506 85.0951 25.6394L91.1718 22.143C91.565 21.9144 91.8038 21.4885 91.8038 21.0336V14.028C91.8038 13.5729 91.565 13.1458 91.1718 12.9186L85.0951 9.40948C84.9047 9.30064 84.6863 9.25456 84.463 9.25456L84.4629 9.25438Z" fill="#868E96"/>
<path d="M86.0883 14.2602C84.358 14.2602 83.3275 14.9966 83.3275 16.2213C83.3275 17.5496 84.3503 17.9147 86.011 18.0789C87.9978 18.2735 88.1525 18.5652 88.1525 18.9563C88.1525 19.6346 87.6117 19.9239 86.3336 19.9239C84.7275 19.9239 84.3747 19.5229 84.2565 18.7241C84.2425 18.6384 84.1763 18.5692 84.0887 18.5692H83.3017C83.2048 18.5692 83.1211 18.6527 83.1211 18.7499C83.1211 19.7725 83.6773 20.9818 86.3336 20.9818C88.2564 20.9818 89.3654 20.2271 89.3654 18.9047C89.3654 17.5939 88.4696 17.2419 86.6044 16.9954C84.7198 16.746 84.5402 16.6238 84.5402 16.1826C84.5402 15.8182 84.6926 15.3308 86.0883 15.3308C87.3352 15.3308 87.7961 15.5998 87.9849 16.4406C88.0014 16.5195 88.071 16.5824 88.1525 16.5824H88.9397C88.9881 16.5824 89.0351 16.5527 89.0686 16.5179C89.1016 16.4808 89.1249 16.439 89.1203 16.389C88.9983 14.9412 88.0329 14.2602 86.0883 14.2602Z" fill="#868E96"/>
<path d="M48.74 0.0686716C48.672 0.0687166 48.6053 0.0864528 48.5463 0.120134C48.4877 0.15443 48.439 0.203405 48.4051 0.262234C48.3712 0.321062 48.3532 0.387714 48.3528 0.455623V10.3252C48.3528 10.4221 48.3078 10.5088 48.2239 10.5574C48.1828 10.5814 48.136 10.594 48.0884 10.594C48.0408 10.594 47.9941 10.5814 47.953 10.5574L46.3403 9.6286C46.2226 9.56054 46.0891 9.5247 45.9532 9.5247C45.8173 9.5247 45.6838 9.56054 45.5662 9.6286L39.1284 13.3441C38.8878 13.4831 38.7414 13.7501 38.7414 14.028V21.4591C38.7414 21.7367 38.8879 21.991 39.1284 22.1299L45.5662 25.8456C45.6838 25.9138 45.8173 25.9498 45.9532 25.9498C46.0892 25.9498 46.2227 25.9138 46.3403 25.8456L52.778 22.1299C52.8959 22.0621 52.9938 21.9643 53.0617 21.8466C53.1297 21.7288 53.1654 21.5951 53.1652 21.4591V2.9328C53.165 2.79362 53.1279 2.65698 53.0576 2.53683C52.9874 2.41668 52.8865 2.31732 52.7653 2.24891L48.9334 0.107223C48.8734 0.0736922 48.8067 0.067775 48.74 0.0686716ZM7.32645 9.34475C7.20381 9.3496 7.08833 9.37111 6.97823 9.43495L0.540275 13.1506C0.422345 13.2184 0.324434 13.3161 0.256475 13.4339C0.188516 13.5517 0.152929 13.6854 0.153324 13.8214L0.166234 23.7945C0.166234 23.9331 0.237779 24.062 0.35971 24.1298C0.418166 24.1649 0.485078 24.1835 0.553275 24.1835C0.621472 24.1835 0.688384 24.1649 0.746841 24.1298L4.56561 21.9366C4.8075 21.7928 4.96548 21.5429 4.96548 21.2657V16.6083C4.96548 16.3303 5.11161 16.0753 5.35261 15.9373L6.97805 14.9955C7.09558 14.9272 7.22924 14.8915 7.36518 14.8923C7.49787 14.8923 7.63415 14.9254 7.75214 14.9955L9.37776 15.9373C9.4958 16.005 9.59381 16.1027 9.66181 16.2206C9.72981 16.3384 9.76538 16.4722 9.7649 16.6083V21.2655C9.7649 21.5427 9.92448 21.7944 10.1648 21.9365L13.9835 24.1298C14.042 24.1649 14.1089 24.1835 14.1771 24.1835C14.2453 24.1835 14.3122 24.1649 14.3707 24.1298C14.4295 24.0957 14.4784 24.0468 14.5123 23.9879C14.5463 23.9291 14.5643 23.8623 14.5643 23.7943L14.5769 13.8214C14.5776 13.6853 14.5422 13.5515 14.4742 13.4336C14.4062 13.3158 14.3081 13.2181 14.1899 13.1506L7.75214 9.43495C7.6433 9.37111 7.52746 9.34978 7.40392 9.34475H7.32645ZM65.1763 9.43495C65.0418 9.43495 64.91 9.46902 64.7893 9.53823L58.3515 13.2539C58.2337 13.3217 58.1358 13.4195 58.0678 13.5372C57.9998 13.655 57.9641 13.7887 57.9644 13.9247V21.3559C57.9644 21.6354 58.1218 21.8886 58.3643 22.0268L64.7506 25.665C64.9864 25.7995 65.2744 25.8097 65.5118 25.6776L69.3822 23.5232C69.505 23.455 69.588 23.3277 69.5886 23.1879C69.5892 23.1198 69.5716 23.0527 69.5376 22.9937C69.5036 22.9347 69.4544 22.8859 69.3951 22.8524L62.9186 19.1367C62.7974 19.0675 62.7122 18.9275 62.7122 18.7883V16.4662C62.7122 16.3273 62.7983 16.2 62.9186 16.1308L64.9312 14.9695C64.99 14.9355 65.0567 14.9176 65.1247 14.9176C65.1927 14.9176 65.2595 14.9355 65.3183 14.9695L67.3307 16.1308C67.3896 16.1646 67.4386 16.2135 67.4726 16.2724C67.5066 16.3312 67.5245 16.3981 67.5243 16.4661V18.2981C67.5242 18.3661 67.542 18.4329 67.5759 18.4918C67.6099 18.5507 67.6589 18.5995 67.7178 18.6334C67.8385 18.7031 67.9844 18.7033 68.1048 18.6334L71.9624 16.389C72.0801 16.3209 72.1778 16.223 72.2458 16.1053C72.3137 15.9875 72.3495 15.8539 72.3496 15.718V13.9249C72.3496 13.6478 72.2025 13.393 71.9624 13.2539L65.5634 9.53823C65.4458 9.47018 65.3122 9.4346 65.1763 9.43513V9.43495ZM45.9273 14.9826C45.961 14.9826 46.0005 14.9909 46.0306 15.0083L48.2368 16.2855C48.2967 16.3201 48.3401 16.3841 48.3401 16.4532V19.0076C48.3401 19.077 48.2971 19.1408 48.2368 19.1754L46.0306 20.4527C46.0011 20.4695 45.9678 20.4783 45.9339 20.4783C45.8999 20.4783 45.8666 20.4695 45.8371 20.4527L43.6311 19.1754C43.571 19.1407 43.5278 19.077 43.5278 19.0076V16.4532C43.5278 16.3839 43.5712 16.3205 43.6311 16.2855L45.8371 15.0084C45.8642 14.9916 45.8955 14.9827 45.9275 14.9828V14.9826H45.9273Z" fill="#868E96"/>
<path d="M26.666 9.39621C26.5318 9.39621 26.3991 9.43028 26.279 9.49949L19.8412 13.2023C19.6004 13.3409 19.4541 13.6084 19.4541 13.886V21.3171C19.4541 21.5951 19.6006 21.849 19.8412 21.9881L26.279 25.7036C26.3966 25.7719 26.5301 25.8079 26.6661 25.8079C26.802 25.8079 26.9355 25.7719 27.0531 25.7036L33.4909 21.9881C33.6087 21.9202 33.7066 21.8224 33.7745 21.7046C33.8425 21.5868 33.8781 21.4531 33.8778 21.3171V13.886C33.8778 13.608 33.7315 13.3409 33.4909 13.2023L27.0531 9.49949C26.9354 9.43153 26.8019 9.3959 26.666 9.39621ZM65.1637 16.0276C65.1381 16.0276 65.1096 16.0276 65.0864 16.0406L63.8479 16.763C63.8248 16.7758 63.8055 16.7945 63.7919 16.8172C63.7783 16.8398 63.7709 16.8657 63.7705 16.8921V18.3112C63.7705 18.3646 63.8013 18.4135 63.8479 18.4403L65.0864 19.1498C65.1329 19.1767 65.1824 19.1767 65.2283 19.1498L66.4668 18.4401C66.4898 18.4272 66.509 18.4085 66.5226 18.3859C66.5362 18.3633 66.5436 18.3375 66.5442 18.3112V16.8919C66.5436 16.8656 66.5362 16.8398 66.5226 16.8172C66.509 16.7946 66.4898 16.7759 66.4668 16.763L65.2283 16.0404C65.2053 16.0269 65.1895 16.0278 65.1637 16.0278V16.0276Z" fill="#868E96"/>
</g>
<defs>
<clipPath id="clip0_66_271">
<rect width="91.8079" height="26" fill="white"/>
</clipPath>
</defs>
</svg>
