<svg width="69" height="69" viewBox="0 0 69 69" fill="none" xmlns="http://www.w3.org/2000/svg">
<g clip-path="url(#clip0_66_265)">
<path d="M55.6741 23.5903C54.9552 23.3507 54.2363 23.1244 53.5174 22.9113C53.6372 22.4188 53.7437 21.9262 53.8502 21.4336C55.4877 13.4992 54.4093 7.12239 50.775 5.01897C47.2737 3.00874 41.5625 5.09885 35.7848 10.1311C35.2123 10.6237 34.6532 11.1429 34.1207 11.6621C33.7612 11.3159 33.3885 10.9698 33.0157 10.637C26.9584 5.2586 20.8878 2.99543 17.2534 5.11216C13.7654 7.13571 12.727 13.1398 14.1914 20.6482C14.3379 21.3937 14.4976 22.1259 14.684 22.8714C13.832 23.111 12.9933 23.3773 12.2078 23.6569C5.09879 26.1197 0 30.0071 0 34.0275C0 38.1811 5.43162 42.348 12.8202 44.8774C13.4193 45.0771 14.0184 45.2768 14.6307 45.4499C14.4311 46.2486 14.258 47.0341 14.0982 47.8462C12.7004 55.2348 13.792 61.0924 17.28 63.1026C20.8744 65.1794 26.9184 63.0494 32.8027 57.8973C33.2686 57.4846 33.7346 57.0586 34.2005 56.606C34.7863 57.1784 35.3987 57.7243 36.0111 58.2568C41.7089 63.1559 47.3403 65.1395 50.8149 63.1293C54.4093 61.0525 55.5809 54.7555 54.0632 47.0874C53.9434 46.5016 53.8103 45.9025 53.6638 45.2901C54.0898 45.1703 54.5025 45.0372 54.9152 44.9041C62.5967 42.3613 68.1614 38.2477 68.1614 34.0275C68.1614 29.9937 62.9162 26.0798 55.6741 23.5903ZM37.6619 12.2878C42.6142 7.97441 47.2338 6.28369 49.3372 7.49515C51.587 8.78649 52.4524 14.0051 51.0412 20.8612C50.948 21.3138 50.8548 21.7531 50.735 22.1925C47.7796 21.5268 44.7842 21.0476 41.7755 20.7813C40.0448 18.3051 38.1544 15.9355 36.1043 13.7122C36.6235 13.2196 37.1293 12.7537 37.6619 12.2878ZM20.3552 37.4622C20.9676 38.6337 21.5933 39.792 22.259 40.9369C22.9379 42.0951 23.6302 43.2533 24.3624 44.3849C22.2856 44.1585 20.2221 43.8257 18.1853 43.3864C18.771 41.4694 19.5032 39.4858 20.3552 37.4622ZM20.3552 30.726C19.5165 28.7423 18.811 26.7987 18.2252 24.9216C20.1422 24.4956 22.1791 24.1494 24.2958 23.8832C23.5903 24.9881 22.898 26.1197 22.2457 27.2646C21.5933 28.3962 20.9543 29.5544 20.3552 30.726ZM21.8729 34.0941C22.7515 32.2569 23.7101 30.4597 24.7218 28.6891C25.7336 26.9185 26.8253 25.2011 27.9702 23.5104C29.9671 23.364 32.0039 23.2841 34.0807 23.2841C36.1575 23.2841 38.2077 23.364 40.1913 23.5104C41.3229 25.1878 42.4012 26.9052 43.4263 28.6625C44.4514 30.4198 45.4099 32.217 46.3152 34.0408C45.4232 35.878 44.4647 37.6885 43.4396 39.4724C42.4278 41.243 41.3495 42.9604 40.2179 44.6644C38.2343 44.8109 36.1708 44.8774 34.0807 44.8774C31.9906 44.8774 29.9671 44.8109 28.0101 44.6911C26.8519 43.0003 25.7602 41.2697 24.7351 39.4991C23.7101 37.7285 22.7649 35.9312 21.8729 34.0941ZM45.9158 40.9102C46.5947 39.7387 47.2338 38.5539 47.8595 37.3557C48.7115 39.2861 49.457 41.243 50.1093 43.2533C48.0458 43.7192 45.9557 44.0787 43.8523 44.3183C44.5712 43.2 45.2501 42.0551 45.9158 40.9102ZM47.8328 30.726C47.2071 29.5544 46.5681 28.3829 45.9025 27.238C45.2501 26.1064 44.5712 24.9881 43.8656 23.8832C46.009 24.1494 48.0591 24.5089 49.9762 24.9482C49.3638 26.9185 48.6449 28.8355 47.8328 30.726ZM34.1073 15.7491C35.5052 17.2667 36.8232 18.8643 38.0479 20.5151C35.412 20.3952 32.7628 20.3952 30.1268 20.5151C31.4315 18.7977 32.7761 17.2002 34.1073 15.7491ZM18.6645 7.58834C20.9011 6.28369 25.8667 8.14748 31.0987 12.7803C31.4315 13.0732 31.7643 13.3927 32.1104 13.7122C30.0469 15.9355 28.1432 18.3051 26.3992 20.7813C23.3906 21.0476 20.4085 21.5135 17.4531 22.1658C17.28 21.4869 17.1336 20.7946 16.9871 20.1024C15.7357 13.659 16.5611 8.7998 18.6645 7.58834ZM15.4029 42.6808C14.8438 42.5211 14.2979 42.348 13.7521 42.1616C10.9165 41.2697 7.69479 39.8585 5.36505 38.008C4.02046 37.0761 3.11519 35.6384 2.86225 34.0275C2.86225 31.5913 7.06909 28.4761 13.1397 26.3594C13.8985 26.0931 14.6707 25.8535 15.4428 25.6272C16.3481 28.516 17.4397 31.3517 18.7045 34.0941C17.4264 36.8765 16.3215 39.752 15.4029 42.6808ZM30.9256 55.7274C28.729 57.7376 26.1862 59.3351 23.4172 60.4268C21.9395 61.1323 20.2354 61.1989 18.7178 60.5998C16.601 59.3751 15.7224 54.6756 16.9205 48.3521C17.067 47.6066 17.2267 46.861 17.4131 46.1288C20.3952 46.7678 23.4039 47.2072 26.4525 47.4335C28.2098 49.923 30.1401 52.306 32.2036 54.5425C31.7776 54.9552 31.3516 55.3546 30.9256 55.7274ZM34.1872 52.4923C32.8293 51.0279 31.4714 49.4038 30.1535 47.6598C31.4315 47.7131 32.7494 47.7397 34.0807 47.7397C35.4519 47.7397 36.7965 47.7131 38.1278 47.6465C36.903 49.3372 35.5851 50.9481 34.1872 52.4923ZM51.587 56.4862C51.4672 58.1103 50.6684 59.628 49.3904 60.6531C47.2737 61.8779 42.7607 60.2803 37.8882 56.1001C37.329 55.6208 36.7699 55.1016 36.1975 54.5691C38.2343 52.3193 40.1114 49.9363 41.8154 47.4335C44.8641 47.1805 47.8994 46.7146 50.8948 46.0356C51.0279 46.5815 51.1477 47.1273 51.2542 47.6598C51.9065 50.5354 52.013 53.5307 51.587 56.4862ZM54.01 42.1749C53.6372 42.2948 53.2644 42.4146 52.8784 42.5211C51.9465 39.6189 50.8016 36.7833 49.4836 34.0275C50.7616 31.3117 51.84 28.516 52.7452 25.6538C53.4375 25.8535 54.1031 26.0665 54.7422 26.2795C60.9459 28.4095 65.2992 31.578 65.2992 34.0009C65.2992 36.6102 60.653 39.9783 54.01 42.1749ZM34.0807 27.9835C37.4489 27.9835 40.178 30.7126 40.178 34.0808C40.178 37.4489 37.4489 40.178 34.0807 40.178C30.7126 40.178 27.9835 37.4489 27.9835 34.0808C27.9835 30.7126 30.7126 27.9835 34.0807 27.9835Z" fill="#868E96"/>
</g>
<defs>
<clipPath id="clip0_66_265">
<rect width="68.1614" height="68.1614" fill="white"/>
</clipPath>
</defs>
</svg>
