<svg width="85" height="85" viewBox="0 0 85 85" fill="none" xmlns="http://www.w3.org/2000/svg">
<g clip-path="url(#clip0_66_263)">
<path d="M21.1408 40.4802C20.8114 44.6267 24.4542 47.6806 26.9402 47.6806C29.4296 47.5646 39.1251 39.3942 39.1251 39.3942C43.6852 33.6269 43.705 31.0626 43.705 29.0469C43.3245 20.1484 27.1124 33.702 21.1408 40.4802ZM61.2458 37.0359C63.4463 32.3784 60.4856 27.2052 54.0456 31.749C48.9279 35.0017 42.3026 41.6931 39.1318 44.3125C37.6611 47.2831 41.3891 55.4353 47.2972 51.1309C54.2805 46.0574 59.3799 41.2868 61.2458 37.0359ZM67.2393 8.86092L68.6572 0H84.3049V16.175L78.5704 16.2435L71.6655 39.6306C72.0952 47.8845 67.9097 48.0189 67.375 51.8062C66.0312 61.3252 55.3861 69.1137 51.3164 69.1137C48.6019 69.035 46.6176 65.924 45.9512 63.213C53.6044 54.7481 63.8963 48.0955 63.8963 48.0955C64.539 43.6437 63.1264 42.2265 67.8765 38.4328L72.4093 14.6005C68.538 12.0442 66.7317 12.0839 67.2393 8.86092ZM36.6973 48.3294C40.6659 56.326 46.4001 56.5345 55.2905 46.3538C55.5019 47.2949 55.7331 48.2811 55.3085 50.6488C37.2234 66.8247 20.1896 82.568 15.0046 84.3049H0V80.2805C2.44021 76.8966 22.4672 60.3782 36.6973 48.3294ZM63.4259 63.8122C62.6117 70.7339 56.3013 76.7904 47.8687 84.3049H21.1441L43.6738 65.3272C47.5631 74.1785 54.471 72.8962 63.4259 63.8122ZM31.8218 48.1017L0 75.2247V57.6278L18.7265 42.3828C19.7283 48.0571 25.8653 53.0536 31.8218 48.1017Z" fill="#868E96"/>
</g>
<defs>
<clipPath id="clip0_66_263">
<rect width="84.3049" height="84.3049" fill="white"/>
</clipPath>
</defs>
</svg>
