<svg width="518" height="483" viewBox="0 0 518 483" fill="none" xmlns="http://www.w3.org/2000/svg">
<g clip-path="url(#clip0_701_67)">
<path d="M376.071 274.083V407.508L398.609 443.88L400.324 446.647H489.255L491.051 274.083H376.071Z" fill="#F1F1F1"/>
<path opacity="0.1" d="M376.071 274.083V407.508L398.609 443.88L399.992 274.083H376.071Z" fill="black"/>
<path d="M161.38 270.525V403.951L138.841 440.323L137.126 443.088H48.1955L46.3986 270.525H161.38Z" fill="#F1F1F1"/>
<path opacity="0.1" d="M161.38 270.525V403.95L138.841 440.322L137.458 270.525H161.38Z" fill="black"/>
<path d="M518 267.857V275.862H34.7209V264.298L79.6351 241.171H478.476L518 267.857Z" fill="#F1F1F1"/>
<path opacity="0.1" d="M518 267.857V275.862H34.7209V264.298L518 267.857Z" fill="black"/>
<path d="M103.889 307.884H82.33L73.3472 301.657H113.77L103.889 307.884Z" fill="#623CEA"/>
<path d="M103.889 333.68H82.33L73.3472 327.453H113.77L103.889 333.68Z" fill="#623CEA"/>
<path d="M103.889 370.15H82.33L73.3472 363.923H113.77L103.889 370.15Z" fill="#623CEA"/>
<path d="M103.889 406.619H82.33L73.3472 400.393H113.77L103.889 406.619Z" fill="#623CEA"/>
<path d="M433.561 311.442H455.12L464.103 305.215H423.68L433.561 311.442Z" fill="#623CEA"/>
<path d="M433.561 337.237H455.12L464.103 331.011H423.68L433.561 337.237Z" fill="#623CEA"/>
<path d="M433.561 373.708H455.12L464.103 367.481H423.68L433.561 373.708Z" fill="#623CEA"/>
<path d="M433.561 410.177H455.12L464.103 403.951H423.68L433.561 410.177Z" fill="#623CEA"/>
<path d="M448.242 86.8775H266.746C265.844 86.8774 264.952 87.0531 264.119 87.3947C263.286 87.7362 262.529 88.2369 261.892 88.868C261.254 89.4992 260.749 90.2485 260.404 91.0732C260.059 91.8979 259.882 92.7818 259.882 93.6744V214.74C259.882 215.632 260.059 216.516 260.404 217.341C260.749 218.165 261.254 218.915 261.892 219.546C262.529 220.177 263.286 220.678 264.119 221.019C264.952 221.361 265.844 221.537 266.746 221.536H335.643L333.062 237.855C333.062 237.855 318.311 245.615 328.683 245.844C339.055 246.072 387.918 245.844 387.918 245.844C387.918 245.844 397.369 245.844 382.387 237.627L379.959 221.536H448.242C449.143 221.537 450.036 221.361 450.869 221.019C451.702 220.678 452.458 220.177 453.096 219.546C453.733 218.915 454.239 218.166 454.584 217.341C454.929 216.516 455.106 215.632 455.106 214.74V93.6744C455.106 92.7818 454.929 91.8979 454.584 91.0732C454.239 90.2485 453.733 89.4992 453.096 88.868C452.458 88.2369 451.702 87.7362 450.869 87.3947C450.036 87.0531 449.143 86.8774 448.242 86.8775V86.8775Z" fill="#623CEA"/>
<path d="M448.537 94.067H266.451V194.947H448.537V94.067Z" fill="#F2F2F2"/>
<path d="M357.494 92.0128C358.13 92.0128 358.646 91.5019 358.646 90.8717C358.646 90.2414 358.13 89.7305 357.494 89.7305C356.857 89.7305 356.341 90.2414 356.341 90.8717C356.341 91.5019 356.857 92.0128 357.494 92.0128Z" fill="#F2F2F2"/>
<path d="M357.494 216.629C359.913 216.629 361.873 214.688 361.873 212.293C361.873 209.898 359.913 207.956 357.494 207.956C355.075 207.956 353.115 209.898 353.115 212.293C353.115 214.688 355.075 216.629 357.494 216.629Z" fill="#F2F2F2"/>
<path d="M350.67 258.168V260.451H226.667V258.625L226.837 258.168L229.893 249.952H348.134L350.67 258.168Z" fill="#623CEA"/>
<path d="M398.39 255.934C398.164 256.89 397.311 257.899 395.385 258.853C388.47 262.277 374.41 257.94 374.41 257.94C374.41 257.94 363.577 256.114 363.577 251.321C363.881 251.115 364.198 250.928 364.527 250.762C367.434 249.239 377.073 245.481 394.164 250.921C395.423 251.313 396.548 252.042 397.413 253.029C397.796 253.403 398.084 253.86 398.254 254.365C398.424 254.87 398.471 255.408 398.39 255.934Z" fill="#623CEA"/>
<path opacity="0.1" d="M398.39 255.934C389.927 259.145 382.383 259.385 374.64 254.06C371.713 251.917 368.168 250.761 364.527 250.762C367.434 249.239 377.073 245.481 394.164 250.921C395.423 251.313 396.548 252.042 397.413 253.029C397.796 253.403 398.084 253.86 398.254 254.365C398.424 254.87 398.471 255.408 398.39 255.934Z" fill="black"/>
<path d="M387.778 254.06C389.433 254.06 390.775 253.651 390.775 253.147C390.775 252.643 389.433 252.234 387.778 252.234C386.123 252.234 384.782 252.643 384.782 253.147C384.782 253.651 386.123 254.06 387.778 254.06Z" fill="#F2F2F2"/>
<path opacity="0.1" d="M350.67 258.168V260.451H226.667V258.625L226.837 258.168H350.67Z" fill="black"/>
<path d="M68.9475 0.000109909C67.689 -0.102208 66.4288 0.176554 65.3339 0.799457C64.2589 1.52848 63.5813 2.80566 62.8896 3.99415C60.2452 8.59248 56.6652 12.5969 52.3763 15.7537C49.2524 18.0198 45.2809 20.8454 45.8153 25.0235C46.0973 26.4033 46.6121 27.7262 47.338 28.9366C50.2198 34.6971 58.0839 39.1488 57.3104 45.722C60.1736 40.9756 56.3439 38.6286 59.207 33.8823C60.5706 31.6219 62.9392 29.0704 64.9979 30.4899C65.6872 30.9652 66.1398 31.8177 66.8575 32.2347C68.57 33.2298 70.3919 31.3274 71.9078 29.9799C77.1352 25.3332 84.5689 26.5505 91.0738 27.9983C94.1447 28.6818 97.5178 29.5786 99.3331 32.4849C101.72 36.3062 97.0654 40.4332 95.8894 44.7535C95.7934 45.1217 95.7889 45.5073 95.8762 45.8776C95.9635 46.2478 96.1401 46.5916 96.3908 46.8795C96.6416 47.1675 96.959 47.391 97.316 47.531C97.673 47.6709 98.059 47.7232 98.4408 47.6833C100.393 47.4926 102.705 47.3364 102.82 46.4882C105.276 46.5748 108.285 46.2994 109.337 43.7674C109.659 42.7656 109.829 41.7221 109.841 40.671C110.228 36.4177 112.051 32.5374 113.258 28.4893C114.466 24.4412 114.991 19.6971 112.953 16.108C112.226 14.9138 111.326 13.8312 110.283 12.8945C98.7173 1.8114 83.5111 -0.0163415 68.9475 0.000109909Z" fill="#100A26"/>
<path d="M59.8257 54.0244C59.8257 54.0244 62.341 74.7805 53.1182 76.441C43.8953 78.1014 61.5026 106.33 61.5026 106.33L103.425 111.311L93.3633 78.1014C93.3633 78.1014 86.6558 75.6107 90.848 59.0059C95.0402 42.401 59.8257 54.0244 59.8257 54.0244Z" fill="#FFCDCD"/>
<path d="M34.2532 410.613L37.6073 456.277H55.2139L50.1839 410.613H34.2532Z" fill="#FFCDCD"/>
<path d="M163.373 324.268L165.888 362.459L185.173 354.157L177.626 322.608L163.373 324.268Z" fill="#FFCDCD"/>
<path d="M21.6767 236.263C21.6767 236.263 22.5151 284.417 27.5458 300.191C32.5765 315.966 31.738 316.796 30.8996 319.287C30.0611 321.777 29.2227 320.117 29.2227 324.268C29.2227 328.419 27.5458 394.009 29.2227 399.82C30.8996 405.632 24.192 415.595 29.2227 416.425C34.2533 417.255 57.7296 416.425 58.5681 411.444C59.4065 406.462 51.8606 404.802 55.2143 401.481C58.5681 398.16 63.5987 330.08 63.5987 330.08L75.3369 282.756L97.1363 257.849H143.251L157.504 312.645C157.504 312.645 151.635 328.419 155.827 328.419C160.019 328.419 185.173 333.401 185.173 315.136C185.173 296.87 176.788 242.904 175.111 241.244C173.434 239.584 175.95 233.772 173.434 231.281C170.919 228.79 141.574 211.355 130.674 208.034C119.774 204.713 104.484 200.761 104.484 200.761L21.6767 236.263Z" fill="#100A26"/>
<path d="M185.173 347.515C185.173 347.515 172.596 343.364 166.727 355.817C160.858 368.271 163.373 371.592 163.373 371.592C163.373 371.592 182.657 378.234 186.011 374.913C187.47 373.468 192.103 372.966 196.873 372.86C204.137 372.699 206.069 362.523 199.209 360.153C199.004 360.082 198.797 360.021 198.588 359.969C191.88 358.308 185.173 347.515 185.173 347.515Z" fill="#100A26"/>
<path d="M78.6906 67.7234C92.5824 67.7234 103.844 56.572 103.844 42.8161C103.844 29.0602 92.5824 17.9089 78.6906 17.9089C64.7989 17.9089 53.5374 29.0602 53.5374 42.8161C53.5374 56.572 64.7989 67.7234 78.6906 67.7234Z" fill="#FFCDCD"/>
<path d="M45.9915 86.819C45.9915 86.819 87.0751 95.1214 97.1363 81.8375C107.198 68.5536 111.39 119.198 111.39 119.198L116.42 172.334L108.875 201.392C108.875 201.392 69.4678 232.942 56.8912 235.432C44.3146 237.923 25.0305 239.584 25.0305 239.584C25.0305 239.584 30.8996 147.427 30.8996 145.766C30.8996 144.106 45.9915 86.819 45.9915 86.819Z" fill="#623CEA" fill-opacity="0.85"/>
<path d="M58.4859 71.2481C58.4859 71.2481 49.3452 66.0629 46.8299 71.0444C44.3146 76.0258 20.8382 88.4795 18.3229 88.4795C15.8076 88.4795 23.3536 157.39 19.9998 165.692C16.646 173.994 0.715679 234.602 9.93852 239.584C19.1614 244.565 12.4538 234.602 21.6767 247.056C30.8995 259.509 76.1753 259.509 78.6906 254.528C81.2059 249.546 58.5681 212.186 62.7603 177.315C66.9525 142.445 73.66 94.2912 67.7909 87.6492C61.9218 81.0073 58.4859 71.2481 58.4859 71.2481Z" fill="#100A26"/>
<path d="M88.752 76.8561L89.9198 72.8763C89.9198 72.8763 124.805 84.3283 126.482 91.8004C128.159 99.2726 127.32 151.578 121.451 155.729C115.582 159.88 107.198 166.522 113.067 176.485C118.936 186.448 125.643 197.241 130.674 198.071C135.705 198.902 144.927 204.713 142.412 210.525C139.897 216.337 109.713 205.544 109.713 205.544C109.713 205.544 89.5904 190.599 90.4288 167.352C91.2673 144.106 88.752 76.8561 88.752 76.8561Z" fill="#100A26"/>
<path d="M118.097 174.825L97.9747 212.186C97.9747 212.186 68.6293 242.074 85.3982 245.395C102.167 248.716 111.39 217.997 111.39 217.997L133.189 187.278L118.097 174.825Z" fill="#FFCDCD"/>
<path d="M70.1728 6.51703C69.159 6.44264 68.1434 6.63768 67.2312 7.082C66.4064 7.67851 65.7266 8.44996 65.2415 9.33999C63.0051 12.6711 60.09 15.5022 56.6832 17.6515C54.1402 19.2532 50.9072 21.2503 51.3423 24.2034C51.5785 25.1935 51.9988 26.1314 52.5818 26.9691C54.9358 31.0818 55.873 35.8418 55.2514 40.5289L62.2437 30.4647C63.3537 28.8671 65.2819 27.0637 66.9577 28.067C67.5188 28.403 67.8873 29.0055 68.4715 29.3002C69.8656 30.0036 71.3487 28.659 72.5827 27.7065C76.8379 24.4223 82.8893 25.2827 88.1846 26.306C90.6844 26.7891 93.4302 27.4229 94.908 29.4771C97.3638 32.8908 94.7995 37.8233 96.2328 41.767C96.634 41.4888 96.9747 41.1337 97.2348 40.7228C97.4948 40.3118 97.6689 39.8533 97.7467 39.3745C99.7457 39.4357 102.195 39.2411 103.052 37.4514C103.312 36.7501 103.451 36.0101 103.462 35.2629C103.777 32.2567 105.261 29.5142 106.244 26.653C107.227 23.7918 107.654 20.4387 105.995 17.902C105.388 17.0424 104.656 16.277 103.822 15.6307C94.4067 7.79723 82.0282 6.5054 70.1728 6.51703Z" fill="#100A26"/>
<path d="M118.097 88.4794L125.909 90.5327C125.909 90.5327 144.089 136.633 139.897 168.183C135.705 199.732 133.189 193.09 133.189 193.09C133.189 193.09 126.482 178.146 111.39 181.467L118.097 88.4794Z" fill="#100A26"/>
<path d="M35.4149 450.242C33.3931 452.963 33.7985 456.852 32.0075 459.727C30.455 462.219 27.5292 463.525 25.5874 465.734C24.9678 466.467 24.4155 467.254 23.9369 468.085C22.1356 471.073 20.6714 474.902 22.4455 477.905C23.8726 480.322 26.8723 481.266 29.6234 481.91C33.1007 482.723 36.7135 483.374 40.2309 482.753C43.7483 482.131 47.1859 479.998 48.44 476.685C48.6865 475.852 48.9795 475.033 49.3178 474.233C51.2242 470.516 57.2041 470.476 59.1552 466.782C60.5206 464.197 59.2654 461.073 58.0108 458.433L54.1788 450.372C52.9072 447.697 47.7521 449.235 45.0646 448.594C41.5595 447.758 37.9364 446.837 35.4149 450.242Z" fill="#100A26"/>
<path d="M7.42322 191.429L42.6377 245.395C42.6377 245.395 64.4371 272.793 71.1447 260.34C77.8522 247.886 47.6683 227.13 47.6683 227.13L25.0304 185.618L7.42322 191.429Z" fill="#FFCDCD"/>
<path d="M25.0304 90.1399L18.3229 88.4794C18.3229 88.4794 4.90787 92.6307 1.55412 110.066C-1.79964 127.501 0.715673 197.241 4.90787 198.071C9.10007 198.902 25.6131 185.928 28.2563 188.679C30.8995 191.429 22.5151 177.315 25.0304 169.843C27.5457 162.371 25.0304 90.1399 25.0304 90.1399Z" fill="#100A26"/>
<path d="M340.26 127.199H318.589V132.365H340.26V127.199Z" fill="#623CEA" fill-opacity="0.85"/>
<path d="M415.303 127.199H407.679V132.365H415.303V127.199Z" fill="#623CEA" fill-opacity="0.85"/>
<path d="M430.553 127.199H422.928V132.365H430.553V127.199Z" fill="#623CEA" fill-opacity="0.85"/>
<path d="M399.652 127.199H347.884V132.365H399.652V127.199Z" fill="#623CEA" fill-opacity="0.85"/>
<path d="M312.971 160.579H291.301V165.745H312.971V160.579Z" fill="#623CEA" fill-opacity="0.85"/>
<path d="M388.015 160.579H380.39V165.745H388.015V160.579Z" fill="#623CEA" fill-opacity="0.85"/>
<path d="M403.264 160.579H395.639V165.745H403.264V160.579Z" fill="#623CEA" fill-opacity="0.85"/>
<path d="M372.364 160.579H320.596V165.745H372.364V160.579Z" fill="#623CEA" fill-opacity="0.85"/>
<path d="M402.462 138.723H380.791V143.889H402.462V138.723Z" fill="#623CEA" fill-opacity="0.85"/>
<path d="M431.757 138.723H410.086V143.889H431.757V138.723Z" fill="#623CEA" fill-opacity="0.85"/>
<path d="M298.925 138.723H291.301V143.889H298.925V138.723Z" fill="#623CEA" fill-opacity="0.85"/>
<path d="M314.175 138.723H306.55V143.889H314.175V138.723Z" fill="#623CEA" fill-opacity="0.85"/>
<path d="M373.568 138.723H321.8V143.889H373.568V138.723Z" fill="#623CEA" fill-opacity="0.85"/>
<path d="M357.516 149.85H335.845V155.016H357.516V149.85Z" fill="#623CEA" fill-opacity="0.85"/>
<path d="M328.22 149.85H306.55V155.016H328.22V149.85Z" fill="#623CEA" fill-opacity="0.85"/>
<path d="M298.925 149.85H291.301V155.016H298.925V149.85Z" fill="#623CEA" fill-opacity="0.85"/>
<path d="M431.757 149.85H424.132V155.016H431.757V149.85Z" fill="#623CEA" fill-opacity="0.85"/>
<path d="M416.507 149.85H364.739V155.016H416.507V149.85Z" fill="#623CEA" fill-opacity="0.85"/>
</g>
<defs>
<clipPath id="clip0_701_67">
<rect width="518" height="483" fill="white"/>
</clipPath>
</defs>
</svg>
